<svg width="50" height="50" viewBox="0 0 50 50" fill="none" xmlns="http://www.w3.org/2000/svg">
<circle cx="25" cy="25" r="25" fill="#3B3B3B"/>
<path d="M15.1336 14.0003H34.0791C34.1031 13.9986 34.1271 14.004 34.148 14.0159C34.1696 14.0267 34.1874 14.0437 34.1992 14.0648C34.2121 14.0847 34.2198 14.1077 34.2214 14.1315C34.2235 14.1552 34.2189 14.1791 34.2081 14.2004C32.5737 17.4976 30.1121 20.3145 27.0638 22.3761C23.5303 24.7374 19.3855 26.018 15.1359 26.0616C15.1176 26.066 15.0986 26.066 15.0803 26.0616C15.0628 26.0555 15.0469 26.0456 15.0336 26.0327C15.0208 26.0189 15.0102 26.0032 15.0025 25.986C14.9994 25.9683 14.9994 25.9503 15.0025 25.9326V14.1515C14.9992 14.1331 14.9992 14.1143 15.0025 14.0959C15.01 14.0793 15.0206 14.0642 15.0336 14.0514C15.0468 14.0379 15.0627 14.0273 15.0803 14.0203C15.0965 14.0101 15.1147 14.0033 15.1336 14.0003Z" fill="#FF6250"/>
<path d="M27.8708 35.7491C27.2995 35.5378 26.8319 35.1138 26.566 34.5657C26.3 34.0176 26.2562 33.3879 26.4438 32.8083L29.638 23.6946C29.74 23.4159 29.8971 23.1607 30.1 22.9442C30.3029 22.7277 30.5474 22.5544 30.8189 22.4346C31.0904 22.3149 31.3832 22.2512 31.6799 22.2473C31.9766 22.2434 32.271 22.2994 32.5455 22.412C33.1191 22.6238 33.5883 23.0497 33.8544 23.6001C34.1205 24.1506 34.1629 24.7828 33.9726 25.3639L30.7784 34.4777C30.6753 34.7553 30.5174 35.0094 30.314 35.2247C30.1106 35.44 29.8659 35.6121 29.5946 35.7308C29.3232 35.8494 29.0307 35.9122 28.7346 35.9154C28.4384 35.9185 28.1447 35.862 27.8708 35.7491Z" fill="#3366FF"/>
<path d="M19.2244 35.9996C20.3445 35.9996 21.4188 35.5547 22.2109 34.7626C23.0029 33.9706 23.4479 32.8963 23.4479 31.7762C23.4479 30.6561 23.0029 29.5818 22.2109 28.7898C21.4188 27.9977 20.3445 27.5527 19.2244 27.5527C18.1043 27.5527 17.03 27.9977 16.238 28.7898C15.4459 29.5818 15.001 30.6561 15.001 31.7762C15.001 32.8963 15.4459 33.9706 16.238 34.7626C17.03 35.5547 18.1043 35.9996 19.2244 35.9996Z" fill="#FFDF90"/>
</svg>
